HIERARCHY
ROOT Hips
{
  OFFSET -32.5998 29.0326 120.673
  CHANNELS 6 Xposition Yposition Zposition Zrotation Xrotation Yrotation
  JOINT LeftUpLeg
  {
    OFFSET 8.64259 1.95398 -2.38835
    CHANNELS 3 Zrotation Xrotation Yrotation
    JOINT LeftLeg
    {
      OFFSET 43.7702 0 0
      CHANNELS 3 Zrotation Xrotation Yrotation
      JOINT LeftFoot
      {
        OFFSET 40.6238 0 0
        CHANNELS 3 Zrotation Xrotation Yrotation
        JOINT LeftToeBase
        {
          OFFSET 12.7242 0 0
          CHANNELS 3 Zrotation Xrotation Yrotation
          End Site
          {
            OFFSET 0 0 0
          }
        }
      }
    }
  }
  JOINT RightUpLeg
  {
    OFFSET -8.2249 1.95398 -2.59336
    CHANNELS 3 Zrotation Xrotation Yrotation
    JOINT RightLeg
    {
      OFFSET 43.5653 0 0
      CHANNELS 3 Zrotation Xrotation Yrotation
      JOINT RightFoot
      {
        OFFSET 40.6238 0 0
        CHANNELS 3 Zrotation Xrotation Yrotation
        JOINT RightToeBase
        {
          OFFSET 12.7242 0 0
          CHANNELS 3 Zrotation Xrotation Yrotation
          End Site
          {
            OFFSET 0 0 0
          }
        }
      }
    }
  }
  JOINT Spine
  {
    OFFSET 0.165834 0.87714 6.61349
    CHANNELS 3 Zrotation Xrotation Yrotation
    JOINT Spine1
    {
      OFFSET 7.38963 1.71661e-005 0
      CHANNELS 3 Zrotation Xrotation Yrotation
      JOINT Spine2
      {
        OFFSET 11.9445 1.14441e-005 0
        CHANNELS 3 Zrotation Xrotation Yrotation
        JOINT Spine3
        {
          OFFSET 14.7254 4.19617e-005 0
          CHANNELS 3 Zrotation Xrotation Yrotation
          JOINT Spine4
          {
            OFFSET 10.9679 0 0
            CHANNELS 3 Zrotation Xrotation Yrotation
            JOINT RightShoulder
            {
              OFFSET 2.46616 -1.6653 3.69651
              CHANNELS 3 Zrotation Xrotation Yrotation
              JOINT RightArm
              {
                OFFSET 13.0012 0 0
                CHANNELS 3 Zrotation Xrotation Yrotation
                JOINT RightForeArm
                {
                  OFFSET 28.7848 1.62311e-005 0
                  CHANNELS 3 Zrotation Xrotation Yrotation
                  JOINT RightHand
                  {
                    OFFSET 26.5688 1.62095e-005 0
                    CHANNELS 3 Zrotation Xrotation Yrotation
                    End Site
                    {
                      OFFSET 0 0 0
                    }
                  }
                }
              }
            }
            JOINT LeftShoulder
            {
              OFFSET 2.38034 -1.29275 -3.7523
              CHANNELS 3 Zrotation Xrotation Yrotation
              JOINT LeftArm
              {
                OFFSET 16.3182 6.07031e-005 0
                CHANNELS 3 Zrotation Xrotation Yrotation
                JOINT LeftForeArm
                {
                  OFFSET 27.0901 0 0
                  CHANNELS 3 Zrotation Xrotation Yrotation
                  JOINT LeftHand
                  {
                    OFFSET 24.5451 1.51738e-005 0
                    CHANNELS 3 Zrotation Xrotation Yrotation
                    End Site
                    {
                      OFFSET 0 0 0
                    }
                  }
                }
              }
            }
            JOINT Neck
            {
              OFFSET 5.0226 -0.0266342 0
              CHANNELS 3 Zrotation Xrotation Yrotation
              JOINT Head
              {
                OFFSET 6.69364 2.86102e-005 0
                CHANNELS 3 Zrotation Xrotation Yrotation
                End Site
                {
                  OFFSET 0 0 0
                }
              }
            }
          }
        }
      }
    }
  }
}
MOTION
Frames:	6
Frame Time:	0.0416667
23.5332 97.7393 12.9917 -108.554 -54.1587 -108.418 -170.018 8.72827 98.1876 -67.1906 19.8879 2.31495 69.1086 4.78513 -0.621041 11.3675 -10.5787 4.72203 176.305 4.79184 100.78 -25.5644 4.44986 3.22407 73.0745 -6.20882 -4.62196 11.8408 5.75803 5.15226 -0.259119 7.76413 -89.6866 11.3463 -0.369403 0.661061 -0.324801 -0.339942 0.676685 -22.8595 -0.550982 0.519501 -2.84682 -0.550992 0.51948 92.5933 -27.4445 -102.401 51.0989 -14.7826 6.09088 -19.4747 -13.4769 -36.5959 -8.70595 -0.150377 -3.35187 -87.6651 -49.0301 82.0546 -19.3342 19.1984 -16.2901 7.81557 -0.758413 -1.91063 0.980441 -0.0178275 -1.88618 -3.25226 -2.73801 -17.327 -7.79486 -0.536666 -6.69953 
20.8263 97.8401 14.7315 -101.157 -36.7316 -100.354 -175.272 17.4308 96.3807 -66.9189 5.03313 4.38336 74.7303 8.08916 2.38879 4.65944 -13.5927 3.75968 179.187 1.86863 102.709 -25.3465 -11.3169 0.3114 72.2472 -7.33483 -6.54125 11.9725 5.61484 5.34466 0.515323 7.83697 -89.6981 11.1974 1.16619 0.486438 -0.473153 1.18647 0.434633 -23.0106 0.966059 0.814453 -2.99791 0.966066 0.814443 91.447 -28.7887 -104.301 42.4518 -14.1776 -2.58223 -21.758 -13.536 -39.8692 -9.91866 -0.159507 -3.51329 -86.3059 -47.8649 83.9376 -30.0137 12.8018 3.93063 7.95613 -10.6931 -7.30506 2.52978 0.0349745 -1.4371 -3.47655 -2.14977 -21.3129 -6.84853 0.404734 -7.09486 
18.5491 97.7944 16.2921 -98.3461 -17.1731 -95.5362 -179.626 21.3503 93.9811 -60.7519 3.23523 5.61675 78.8306 11.1978 3.07868 1.75795 -14.6183 2.93332 -178.779 -1.33213 102.597 -28.8839 -27.098 -3.63481 72.8608 -8.6224 -6.56083 10.9752 5.02739 7.72475 1.31672 8.07397 -89.6663 10.7236 2.77604 0.410259 -0.944416 2.79137 0.287585 -23.4994 2.52432 1.22609 -3.48676 2.52431 1.22608 90.0359 -29.9441 -106.709 36.22 -12.8698 -11.3872 -22.3882 -14.9996 -39.0051 -11.1827 -0.307764 -2.02252 -85.6514 -47.3686 84.8745 -40.5408 18.4354 16.1445 6.0844 -9.38103 -11.6672 -3.18137 -0.119983 -1.99644 -4.59956 -1.29722 -22.8245 -5.92433 1.15451 -8.15555 
15.4038 97.8444 17.8579 -97.6785 0.212952 -94.954 178.917 23.2556 89.595 -48.9796 11.2334 4.53965 74.6427 8.72598 0.364315 8.93097 -12.2813 5.28812 179.778 -5.4806 98.9682 -31.9313 -43.3747 -6.22109 72.9971 -10.1352 -6.07371 11.3754 4.81085 7.85299 1.83025 8.27766 -89.5387 10.3124 3.85765 0.582762 -1.3529 3.87957 0.41215 -23.9266 3.50397 1.71652 -3.91395 3.50397 1.71652 88.634 -29.2618 -109.77 34.4227 -15.1239 -16.0717 -22.404 -16.5681 -37.6885 -9.02152 -0.154208 -3.42037 -86.1003 -48.5826 84.3665 -46.7729 27.533 19.696 6.66314 0.115267 -14.2197 -12.2406 -0.0499527 -4.64252 -5.26266 -0.936766 -22.4607 -6.44602 1.44693 -10.6182 
10.6279 97.3341 18.4894 -96.7996 9.3795 -93.0281 179.571 22.8513 84.8521 -29.9411 24.7087 1.20633 68.3392 4.9685 -2.39369 24.3025 -7.44805 11.6897 177.724 -8.83061 95.2786 -33.9465 -54.1614 -8.12618 73.4451 -12.526 -7.57671 9.95506 4.31415 10.3128 1.89037 8.23286 -89.3919 10.3967 4.04441 0.853952 -1.26816 4.07808 0.674823 -23.8432 3.6006 2.03135 -3.8305 3.60061 2.03134 88.0517 -28.6623 -111.193 33.3763 -20.9119 -18.2134 -20.7952 -18.6849 -34.6884 -9.67767 -0.183014 -3.12702 -85.9837 -49.3177 84.6554 -43.7129 29.7839 17.58 7.62268 1.98655 -15.7395 -10.5121 -0.138624 -3.69384 -5.7093 -1.17147 -21.2834 -6.54439 1.07055 -12.2356 
4.19733 96.2043 18.0082 -96.052 16.2714 -92.356 -179.95 21.6951 80.4209 -21.5759 21.2007 -0.680287 66.3518 3.12208 -5.51209 24.4266 -7.21479 11.4773 176.202 -12.9944 92.4892 -35.2758 -58.0877 -10.1804 74.4699 -13.781 -7.12825 9.46181 3.85019 11.8041 1.80962 7.99835 -89.2827 10.8618 3.93459 1.05808 -0.803476 3.97728 0.883636 -23.3737 3.43456 2.19278 -3.36102 3.43453 2.19277 87.4462 -28.8001 -112.334 34.0331 -25.6756 -17.2045 -17.4191 -19.9189 -29.9927 -8.41424 -0.0962221 -4.08413 -86.0411 -49.1528 84.5432 -33.9866 25.4799 12.3608 7.07652 -3.22612 -14.3185 -5.22662 -0.171695 -1.25648 -7.28495 -1.67507 -19.57 -5.38785 0.0301026 -12.9837 
